<svg width="158" height="32" viewBox="0 0 158 32" fill="none" xmlns="http://www.w3.org/2000/svg">
<g id="Pi Logo Text">
<path id="Vector" d="M5.17789 19.5729V20.0055C5.17789 22.1687 5.17789 24.3223 5.17789 26.4758C5.17789 26.7354 5.12021 26.8315 4.8414 26.8315C3.55952 26.8315 2.30008 26.8315 1.06306 26.8315C0.784253 26.8315 0.726562 26.7354 0.726562 26.4758V6.5554C0.726562 6.30544 0.784249 6.21891 1.04383 6.21891C3.8223 6.21891 6.61039 6.21891 9.38886 6.21891C11.1651 6.19075 12.9103 6.68557 14.4074 7.6418C15.1378 8.11282 15.7586 8.73504 16.2279 9.46645C16.6973 10.1979 17.0043 11.0214 17.1282 11.8816C17.3341 13.051 17.2314 14.2539 16.8302 15.3715C16.4002 16.581 15.5599 17.6016 14.4555 18.2558C13.4062 18.9186 12.2122 19.3178 10.9752 19.4191C9.73497 19.5152 8.48514 19.5248 7.23531 19.5537C6.57194 19.5921 5.89895 19.5729 5.17789 19.5729ZM5.17789 9.71844V16.1214H5.24519C6.92849 16.2001 8.61525 16.1583 10.2926 15.9964C10.676 15.9494 11.0453 15.8225 11.3765 15.6237C11.7077 15.425 11.9935 15.1589 12.2154 14.8428C12.5577 14.276 12.7322 13.6237 12.7186 12.9617C12.705 12.2997 12.5038 11.6551 12.1385 11.1029C11.8447 10.6695 11.4471 10.3167 10.9819 10.0765C10.5167 9.83636 9.99879 9.71656 9.4754 9.72806C8.15826 9.72806 6.84113 9.72806 5.524 9.72806L5.17789 9.71844Z" fill="#D85A49"/>
<path id="Vector_2" d="M20.1758 19.1535C20.1758 16.7403 20.1758 14.3464 20.1758 11.9141C20.1758 11.6064 20.2623 11.5391 20.5507 11.5487H24.1752C24.4348 11.5487 24.5021 11.616 24.5021 11.8756C24.5021 16.7531 24.5021 21.6307 24.5021 26.5083C24.5021 26.7774 24.4156 26.8351 24.1656 26.8255C22.9543 26.8255 21.7333 26.8255 20.5123 26.8255C20.2431 26.8255 20.1758 26.7486 20.1758 26.4794C20.1854 24.047 20.1758 21.5954 20.1758 19.1535Z" fill="#D85A49"/>
<path id="Vector_3" d="M22.3876 9.7319C21.7922 9.76196 21.2046 9.58535 20.7244 9.23197C20.5132 9.07452 20.338 8.87392 20.2103 8.64351C20.0827 8.41309 20.0056 8.15814 19.9841 7.89561C19.9392 7.61159 19.9546 7.32131 20.0294 7.04366C20.1041 6.766 20.2365 6.5072 20.4178 6.28409C20.5992 6.06098 20.8256 5.87858 21.0821 5.74874C21.3387 5.61891 21.6197 5.54456 21.9069 5.53054C22.3278 5.45013 22.7619 5.47284 23.1721 5.59674C23.5823 5.72063 23.9564 5.94202 24.2624 6.24198C24.5797 6.62618 24.7532 7.1089 24.7532 7.60718C24.7532 8.10546 24.5797 8.58818 24.2624 8.97238C24.0215 9.22457 23.7298 9.4227 23.4066 9.55364C23.0834 9.68458 22.7361 9.74534 22.3876 9.7319Z" fill="#D85A49"/>
<path id="Vector_4" d="M121.479 14.1441C121.964 13.3619 122.665 12.7373 123.498 12.3463C124.556 11.8623 125.731 11.6953 126.882 11.8655C127.728 11.9434 128.53 12.279 129.18 12.827C129.513 13.1478 129.813 13.5022 130.074 13.8845C130.192 14.085 130.295 14.2939 130.382 14.5094L130.92 13.8172C131.614 12.935 132.587 12.3146 133.679 12.0578C134.879 11.7336 136.146 11.757 137.333 12.1251C137.98 12.3181 138.567 12.6755 139.035 13.1624C139.503 13.6493 139.838 14.2491 140.005 14.9036C140.2 15.5665 140.31 16.2513 140.332 16.9418C140.39 19.4799 140.39 22.018 140.4 24.5562C140.396 24.8488 140.354 25.1398 140.275 25.4214C140.209 25.6772 140.073 25.909 139.88 26.0895C139.688 26.2701 139.448 26.3919 139.188 26.4405C138.659 26.5803 138.102 26.5803 137.573 26.4405C137.269 26.3442 137.005 26.1512 136.821 25.8908C136.637 25.6304 136.543 25.317 136.554 24.9984C136.554 22.6237 136.554 20.2587 136.554 17.884C136.528 17.3003 136.444 16.7206 136.304 16.1534C136.228 15.8172 136.054 15.5109 135.804 15.2732C135.554 15.0354 135.24 14.8767 134.9 14.8171C134.467 14.7057 134.015 14.6876 133.574 14.7638C133.133 14.8401 132.714 15.0089 132.343 15.2593C132.02 15.4802 131.744 15.7645 131.535 16.0951C131.325 16.4257 131.184 16.7955 131.122 17.1821C131.029 17.7542 130.984 18.3331 130.987 18.9127C130.987 20.8355 130.987 22.7583 130.987 24.6811C130.984 24.9245 130.952 25.1666 130.891 25.4022C130.822 25.6739 130.675 25.9196 130.469 26.1091C130.262 26.2986 130.005 26.4238 129.728 26.4694C129.24 26.5999 128.726 26.5999 128.238 26.4694C127.91 26.3836 127.623 26.1876 127.423 25.9144C127.223 25.6412 127.124 25.3075 127.142 24.9696C127.142 22.518 127.142 20.076 127.142 17.6244C127.148 17.0154 127.023 16.4122 126.776 15.8554C126.651 15.5778 126.457 15.3364 126.213 15.1533C125.97 14.9701 125.684 14.8512 125.382 14.8075C124.97 14.7112 124.542 14.7027 124.127 14.7825C123.711 14.8623 123.317 15.0287 122.969 15.2707C122.622 15.5128 122.33 15.8252 122.111 16.1876C121.892 16.55 121.752 16.9544 121.7 17.3744C121.615 17.9376 121.573 18.5065 121.575 19.0761C121.575 20.9989 121.575 22.9218 121.575 24.8446C121.595 25.0598 121.57 25.2767 121.502 25.4819C121.434 25.687 121.325 25.8758 121.18 26.0366C121.036 26.1973 120.86 26.3264 120.663 26.4157C120.466 26.5051 120.253 26.5528 120.037 26.5559C119.548 26.6135 119.052 26.5474 118.595 26.3636C118.364 26.2606 118.166 26.0955 118.023 25.8867C117.881 25.6779 117.799 25.4336 117.787 25.1811C117.736 24.7054 117.713 24.227 117.72 23.7486C117.72 20.5118 117.72 17.2655 117.72 14.0095C117.716 13.6315 117.771 13.2553 117.883 12.8943C117.96 12.6333 118.114 12.4017 118.325 12.2301C118.536 12.0584 118.795 11.9548 119.066 11.9328C119.42 11.84 119.792 11.837 120.148 11.9243C120.504 12.0116 120.833 12.1864 121.104 12.4328C121.351 12.7343 121.49 13.1101 121.498 13.4999C121.498 13.6634 121.479 13.8557 121.479 14.1441Z" fill="#1D1B19"/>
<path id="Vector_5" d="M49.7382 25.1103C49.844 25.7544 49.0941 26.437 48.4499 26.5043C47.9821 26.5719 47.5047 26.5155 47.0655 26.3409C46.4619 26.0291 46.0033 25.4947 45.7868 24.8507C45.4215 24.072 45.085 23.2836 44.7389 22.5049C44.6244 22.2829 44.5217 22.055 44.4312 21.8223C44.4063 21.7305 44.3483 21.6513 44.2684 21.5998C44.1885 21.5483 44.0924 21.5282 43.9986 21.5434H34.2499C34.1794 21.5356 34.1083 21.5524 34.0488 21.5909C33.9892 21.6295 33.9448 21.6874 33.923 21.755C33.4616 22.8317 32.9616 23.9085 32.5001 24.9661C32.2021 25.6006 31.8752 26.2447 31.1061 26.4466C30.7141 26.5927 30.2853 26.6069 29.8845 26.4872C29.4837 26.3675 29.1329 26.1203 28.8852 25.7833C28.7556 25.5511 28.6875 25.2896 28.6875 25.0238C28.6875 24.7579 28.7556 24.4964 28.8852 24.2642C29.5262 22.9824 30.1479 21.6748 30.7504 20.3417L33.0001 15.5346L34.6441 12.0736C35.3844 10.5065 36.1247 8.94898 36.8553 7.38189C37.0673 6.7729 37.4681 6.24747 37.9994 5.88209C38.3684 5.68759 38.7792 5.58594 39.1964 5.58594C39.6135 5.58594 40.0243 5.68759 40.3933 5.88209C40.9115 6.22308 41.306 6.72205 41.5182 7.30497C41.8258 7.99719 42.1815 8.66056 42.4796 9.34316L44.96 14.5636L46.5463 17.9093C47.386 19.6655 48.2192 21.4281 49.046 23.1971C49.2671 23.6682 49.4594 24.1585 49.6421 24.6392C49.6973 24.7906 49.7297 24.9493 49.7382 25.1103ZM39.1627 9.92962C37.884 12.8138 36.6342 15.6981 35.3651 18.5246H42.9603C41.7104 15.6692 40.451 12.8235 39.1819 9.92962H39.1627Z" fill="#1D1B19"/>
<path id="Vector_6" d="M93.5598 24.2064C93.3386 24.4756 93.156 24.7352 92.9348 24.9563C92.126 25.8079 91.0441 26.3489 89.8776 26.485C88.7659 26.6687 87.6267 26.5896 86.5511 26.2542C85.8277 26.0191 85.1581 25.6432 84.5806 25.1482C84.0031 24.6532 83.5292 24.0489 83.1861 23.37C82.5846 22.2303 82.2555 20.9666 82.2247 19.6782C82.1417 18.442 82.2984 17.2015 82.6862 16.0248C82.9944 15.007 83.5715 14.0911 84.3566 13.3737C85.1417 12.6563 86.1057 12.1639 87.1472 11.9485C88.5913 11.5813 90.1184 11.731 91.4639 12.3715C91.8499 12.561 92.2114 12.7967 92.5407 13.0733C92.8675 13.3425 93.1464 13.6694 93.5021 14.0347V13.6694C93.5021 11.5543 93.5021 9.43918 93.5021 7.32408C93.4784 7.10846 93.5015 6.89028 93.5698 6.6844C93.6381 6.47852 93.75 6.28977 93.8978 6.13101C94.0456 5.97226 94.2259 5.84723 94.4263 5.76443C94.6268 5.68163 94.8428 5.64302 95.0596 5.65122C95.4227 5.63658 95.7864 5.65589 96.1459 5.70891C96.5125 5.78534 96.8379 5.99444 97.0597 6.29609C97.2814 6.59773 97.384 6.97066 97.3477 7.3433V16.669C97.3477 19.3802 97.3477 22.1009 97.3477 24.8121C97.3681 25.0284 97.3425 25.2465 97.2726 25.4521C97.2026 25.6577 97.0899 25.8462 96.9419 26.0052C96.7938 26.1641 96.6138 26.2899 96.4137 26.3743C96.2135 26.4586 95.9978 26.4996 95.7806 26.4946C95.2851 26.5672 94.7791 26.5006 94.3193 26.3023C94.0802 26.1883 93.8789 26.0082 93.7392 25.7832C93.5995 25.5583 93.5272 25.298 93.5309 25.0332C93.5259 24.7573 93.5355 24.4813 93.5598 24.2064ZM86.0608 19.1398C86.1377 19.7359 86.1857 20.3319 86.3203 20.9184C86.3957 21.3753 86.5633 21.8121 86.8129 22.2021C87.0625 22.5922 87.3888 22.9274 87.7721 23.1873C88.488 23.6724 89.3559 23.8808 90.2141 23.7738C90.9923 23.7198 91.7286 23.4009 92.3003 22.8701C92.7117 22.4409 93.034 21.9344 93.2485 21.38C93.463 20.8255 93.5656 20.234 93.5501 19.6397C93.5776 18.9962 93.5357 18.3515 93.4252 17.7169C93.3628 17.2106 93.1924 16.7237 92.9253 16.289C92.6582 15.8544 92.3008 15.4823 91.8773 15.198C91.4327 14.9139 90.9335 14.7261 90.4119 14.6466C89.8903 14.5671 89.3579 14.5978 88.8488 14.7365C88.371 14.8434 87.9241 15.0585 87.5424 15.3651C87.1607 15.6718 86.8545 16.062 86.6472 16.5055C86.2759 17.335 86.0764 18.2311 86.0608 19.1398Z" fill="#1D1B19"/>
<path id="Vector_7" d="M75.6481 24.2284C75.2498 24.9493 74.6655 25.5502 73.956 25.9685C73.4157 26.2957 72.8069 26.4932 72.1774 26.5454C71.0805 26.6644 69.9709 26.5397 68.9279 26.18C67.7798 25.7907 66.817 24.989 66.2263 23.9303C65.9791 23.4471 65.8413 22.9153 65.8225 22.3729C65.7756 21.7687 65.8475 21.1612 66.034 20.5846C66.2705 19.8912 66.762 19.3137 67.4088 18.9695C68.2094 18.5247 69.0931 18.2498 70.0046 18.1619C70.966 18.0561 71.9755 17.9504 72.9658 17.9119C73.956 17.8735 74.6867 17.9119 75.5712 17.9119C75.7145 17.0265 75.5262 16.1194 75.0424 15.3642C74.7323 14.9986 74.2969 14.762 73.8214 14.7008C72.9602 14.5422 72.0772 14.5422 71.216 14.7008C70.2346 14.9261 69.2707 15.2217 68.3318 15.5853C68.1516 15.637 67.962 15.6465 67.7776 15.6131C67.5932 15.5797 67.4189 15.5043 67.2683 15.3928C67.1178 15.2812 66.9949 15.1365 66.9092 14.9698C66.8235 14.8032 66.7774 14.619 66.7743 14.4316C66.7743 13.4702 67.13 13.028 68.0722 12.6915C69.16 12.2821 70.2929 12.0045 71.4467 11.8647C72.5016 11.7365 73.5689 11.7527 74.6194 11.9127C75.6604 12.0378 76.6528 12.4248 77.5036 13.0376C78.264 13.6403 78.8019 14.4793 79.0323 15.4219C79.2276 16.1684 79.3182 16.9385 79.3015 17.71C79.3015 20.0655 79.3015 22.4305 79.3015 24.786C79.3226 24.9932 79.3017 25.2025 79.24 25.4014C79.1783 25.6003 79.0771 25.7848 78.9424 25.9436C78.8078 26.1025 78.6425 26.2326 78.4564 26.3261C78.2702 26.4196 78.0672 26.4745 77.8593 26.4877C77.4136 26.5519 76.9588 26.4955 76.5422 26.3243C76.2869 26.1988 76.0731 26.0024 75.9265 25.7585C75.7798 25.5147 75.7066 25.2338 75.7154 24.9494C75.6385 24.7475 75.6481 24.5264 75.6481 24.2284ZM75.5904 20.0174C74.879 20.0174 74.1771 20.0174 73.4849 20.0174C72.7927 20.0174 72.1197 20.1135 71.4467 20.2193C70.9542 20.2648 70.4844 20.448 70.0912 20.7481C69.9067 20.9423 69.7672 21.1747 69.6826 21.4289C69.598 21.683 69.5703 21.9527 69.6014 22.2187C69.6326 22.4847 69.7219 22.7407 69.8631 22.9683C70.0042 23.196 70.1936 23.3899 70.418 23.5362C70.8303 23.8129 71.3025 23.9877 71.7956 24.0462C72.2886 24.1047 72.7886 24.0452 73.2542 23.8727C74.0445 23.622 74.717 23.093 75.1466 22.384C75.5763 21.6749 75.734 20.834 75.5904 20.0174Z" fill="#1D1B19"/>
<path id="Vector_8" d="M104.126 20.0751C104.21 20.9341 104.544 21.7495 105.087 22.4209C105.469 22.828 105.929 23.1543 106.439 23.3806C106.949 23.6068 107.5 23.7284 108.058 23.738C109.086 23.8194 110.12 23.7052 111.105 23.4015C111.55 23.2527 111.984 23.0728 112.403 22.8632C112.611 22.7485 112.84 22.6759 113.075 22.6495C113.311 22.6231 113.55 22.6434 113.778 22.7093C114.048 22.8298 114.268 23.0379 114.404 23.2997C114.541 23.5615 114.584 23.8617 114.528 24.1514C114.477 24.4219 114.364 24.6768 114.197 24.8955C114.03 25.1143 113.814 25.2908 113.567 25.4109C112.597 25.96 111.529 26.3128 110.423 26.4492C109.811 26.5624 109.19 26.6235 108.567 26.6319C107.666 26.5905 106.77 26.4813 105.885 26.305C104.832 26.092 103.844 25.6342 103.001 24.9686C101.917 24.1451 101.125 22.9962 100.741 21.6902C100.426 20.5587 100.335 19.3765 100.472 18.2099C100.606 16.7148 101.221 15.3032 102.224 14.187C103.228 13.0707 104.566 12.3098 106.039 12.0185C106.846 11.8415 107.676 11.7832 108.5 11.8454C109.96 11.8613 111.366 12.3933 112.472 13.347C113.577 14.3007 114.308 15.6147 114.538 17.0562C114.641 17.6701 114.705 18.2898 114.73 18.9118C114.757 19.0612 114.749 19.2151 114.705 19.3606C114.661 19.5061 114.584 19.6392 114.479 19.749C114.374 19.8587 114.244 19.942 114.1 19.992C113.957 20.042 113.804 20.0573 113.653 20.0366C111.685 20.0751 109.711 20.0975 107.731 20.1039H104.116L104.126 20.0751ZM111.509 17.8831C111.469 17.5375 111.411 17.1941 111.336 16.8543C111.16 16.0759 110.701 15.3907 110.048 14.9315C109.637 14.6651 109.177 14.4829 108.695 14.3954C108.213 14.3079 107.719 14.317 107.241 14.422C106.61 14.5189 106.017 14.7832 105.523 15.1873C105.029 15.5915 104.653 16.1207 104.433 16.7198C104.289 17.0851 104.231 17.4793 104.116 17.8831H111.509Z" fill="#1D1B19"/>
<path id="Vector_9" d="M150.227 21.8997L151.457 19.0155L152.717 16.0736L153.966 13.1317C154.056 12.8674 154.2 12.6252 154.391 12.4209C154.581 12.2167 154.812 12.0552 155.069 11.9471C155.326 11.8389 155.604 11.7866 155.883 11.7936C156.161 11.8006 156.436 11.8667 156.687 11.9876C156.878 12.076 157.049 12.2031 157.189 12.3607C157.329 12.5183 157.435 12.7031 157.5 12.9035C157.565 13.1039 157.588 13.3156 157.567 13.5253C157.546 13.735 157.482 13.9381 157.379 14.1219C156.783 15.4295 156.168 16.7466 155.572 18.0541L153.043 23.563C152.476 24.8128 151.899 26.053 151.332 27.3029C150.842 28.37 150.371 29.4564 149.852 30.5236C149.752 30.7878 149.593 31.0253 149.386 31.2172C149.179 31.4091 148.93 31.5502 148.659 31.6292C148.147 31.7966 147.593 31.7796 147.092 31.5811C146.76 31.4461 146.493 31.1871 146.347 30.8588C146.202 30.5306 146.19 30.1588 146.314 29.8218C146.56 29.1252 146.849 28.4446 147.179 27.7836C147.477 27.1298 147.804 26.4857 148.092 25.8608C148.148 25.722 148.148 25.5669 148.092 25.4281C147.785 24.7359 147.467 24.0533 147.131 23.3707C146.314 21.5921 145.487 19.8231 144.689 18.0349C144.083 16.7178 143.506 15.3814 142.92 14.0546C142.772 13.7197 142.747 13.3434 142.849 12.9918C142.951 12.6401 143.173 12.3357 143.477 12.1318C144.141 11.7761 145.631 11.6992 146.112 12.4106C146.383 12.832 146.618 13.2758 146.814 13.7374C147.381 15.0641 147.938 16.3909 148.496 17.7272L150.169 21.7748C150.169 21.7748 150.188 21.8228 150.227 21.8997Z" fill="#1D1B19"/>
<path id="Vector_10" d="M51.4294 19.1044C51.3904 17.8549 51.6647 16.6155 52.2274 15.4991C52.9516 14.0622 54.1961 12.9551 55.7077 12.4034C56.995 11.9177 58.3749 11.7271 59.7456 11.8458C61.1041 11.893 62.4279 12.2868 63.5913 12.9899C63.8808 13.1423 64.1032 13.3971 64.2152 13.7046C64.3271 14.012 64.3206 14.3502 64.197 14.6531C64.1097 14.9411 63.9292 15.1918 63.6838 15.3659C63.4383 15.54 63.142 15.6274 62.8414 15.6145C62.5848 15.5874 62.3363 15.5089 62.1107 15.3838C61.4039 14.952 60.6015 14.7015 59.7746 14.6546C58.9477 14.6076 58.1221 14.7656 57.371 15.1146C56.9483 15.3331 56.5761 15.6376 56.278 16.0084C55.98 16.3793 55.7628 16.8084 55.6404 17.2681C55.4107 18.0044 55.3227 18.7776 55.3808 19.5467C55.3834 20.1856 55.5229 20.8165 55.7899 21.397C56.0569 21.9774 56.4452 22.4939 56.9287 22.9116C57.4672 23.3166 58.1048 23.569 58.7746 23.6423C59.9622 23.7768 61.1616 23.5274 62.1972 22.9308C62.399 22.8198 62.6266 22.7643 62.8568 22.7703C63.087 22.7762 63.3115 22.8433 63.5072 22.9647C63.703 23.086 63.8629 23.2572 63.9706 23.4608C64.0783 23.6644 64.1299 23.8929 64.1201 24.123C64.1387 24.419 64.0644 24.7133 63.9075 24.965C63.7506 25.2167 63.5191 25.413 63.2452 25.5267C62.3191 26.0273 61.3088 26.3532 60.2648 26.4881C58.4468 26.7592 56.5894 26.4602 54.9482 25.6324C53.9051 25.0961 53.0376 24.272 52.4485 23.2577C51.9192 22.379 51.5908 21.3941 51.4871 20.3735C51.4775 19.9312 51.4583 19.5178 51.4294 19.1044Z" fill="#1D1B19"/>
</g>
</svg>
